<svg xmlns="http://www.w3.org/2000/svg" viewBox="0 0 640 160" role="img" aria-labelledby="title desc">
  <title id="title">Atomic Habits Tracker logo</title>
  <desc id="desc">A green and blue habit tracker mark with a check, calendar, and growth line beside the product name.</desc>
  <defs>
    <linearGradient id="markBg" x1="24" y1="132" x2="132" y2="24" gradientUnits="userSpaceOnUse">
      <stop offset="0" stop-color="#16a34a"/>
      <stop offset="1" stop-color="#0ea5e9"/>
    </linearGradient>
    <linearGradient id="word" x1="172" y1="50" x2="518" y2="50" gradientUnits="userSpaceOnUse">
      <stop offset="0" stop-color="#0f766e"/>
      <stop offset="1" stop-color="#0369a1"/>
    </linearGradient>
  </defs>
  <rect x="16" y="16" width="128" height="128" rx="32" fill="url(#markBg)"/>
  <path d="M48 47h64a12 12 0 0 1 12 12v48a12 12 0 0 1-12 12H48a12 12 0 0 1-12-12V59a12 12 0 0 1 12-12Z" fill="#ffffff" opacity=".18"/>
  <path d="M38 70h84" stroke="#ffffff" stroke-width="7" stroke-linecap="round" opacity=".42"/>
  <path d="M58 35v21M102 35v21" stroke="#ffffff" stroke-width="9" stroke-linecap="round"/>
  <path d="m53 91 16 16 40-45" fill="none" stroke="#ffffff" stroke-width="13" stroke-linecap="round" stroke-linejoin="round"/>
  <path d="M52 105c22-1 42-16 61-45" fill="none" stroke="#bbf7d0" stroke-width="5" stroke-linecap="round" opacity=".8"/>
  <text x="172" y="72" fill="url(#word)" font-family="Inter, Segoe UI, Arial, sans-serif" font-size="40" font-weight="800" letter-spacing="0">Atomic Habits</text>
  <text x="174" y="112" fill="#475569" font-family="Inter, Segoe UI, Arial, sans-serif" font-size="24" font-weight="600" letter-spacing="0">Tracker</text>
  <path d="M294 105h150" stroke="#16a34a" stroke-width="5" stroke-linecap="round" opacity=".22"/>
</svg>
